<svg width="1067" height="968" viewBox="0 0 1067 968" fill="none" xmlns="http://www.w3.org/2000/svg">
<g opacity="0.6" clip-path="url(#clip0)">
<path d="M59.0467 356.268C120.423 285.781 241.629 376.97 417.25 337.061C569.359 302.479 578.11 210.622 699.642 215.177C788.431 218.487 885.183 269.755 938.356 359.072C996.997 457.551 975.68 557.81 969.696 582.139C942.983 691.263 863.698 748.826 835.728 768.487C720.488 849.44 591.173 835.254 529.136 828.479C296.1 802.957 46.6139 636.583 35.5053 455.701C34.0289 432.021 31.342 388.098 59.0467 356.268Z" fill="url(#paint0_linear)"/>
</g>
<defs>
<linearGradient id="paint0_linear" x1="643.823" y1="69.8268" x2="409.583" y2="775.635" gradientUnits="userSpaceOnUse">
<stop stop-color="#F3F7FF"/>
<stop offset="1" stop-color="#DEEEFE"/>
</linearGradient>
<clipPath id="clip0">
<rect width="937.962" height="671.376" fill="white" transform="translate(193.578) rotate(21.4558)"/>
</clipPath>
</defs>
</svg>
